<svg xmlns="http://www.w3.org/2000/svg" viewBox="0 0 24 24" fill="currentColor" class=" bars w-6 h-6">
  <path fill-rule="evenodd" d="M3 6.75A.75.75 0 013.75 6h16.5a.75.75 0 010 1.5H3.75A.75.75 0 013 6.75zM3 12a.75.75 0 01.75-.75h16.5a.75.75 0 010 1.5H3.75A.75.75 0 013 12zm0 5.25a.75.75 0 01.75-.75h16.5a.75.75 0 010 1.5H3.75a.75.75 0 01-.75-.75z" clip-rule="evenodd" />
</svg>

<svg xmlns="http://www.w3.org/2000/svg" viewBox="0 0 24 24" fill="currentColor" class=" arrow-left w-6 h-6">
  <path fill-rule="evenodd" d="M11.03 3.97a.75.75 0 010 1.06l-6.22 6.22H21a.75.75 0 010 1.5H4.81l6.22 6.22a.75.75 0 11-1.06 1.06l-7.5-7.5a.75.75 0 010-1.06l7.5-7.5a.75.75 0 011.06 0z" clip-rule="evenodd" />
</svg>

<svg xmlns="http://www.w3.org/2000/svg" viewBox="0 0 24 24" fill="currentColor" class=" arrow-right w-6 h-6">
  <path fill-rule="evenodd" d="M12.97 3.97a.75.75 0 011.06 0l7.5 7.5a.75.75 0 010 1.06l-7.5 7.5a.75.75 0 11-1.06-1.06l6.22-6.22H3a.75.75 0 010-1.5h16.19l-6.22-6.22a.75.75 0 010-1.06z" clip-rule="evenodd" />
</svg>

<svg xmlns="http://www.w3.org/2000/svg" viewBox="0 0 24 24" fill="currentColor" class="chevron-arrow-left w-6 h-6">
  <path fill-rule="evenodd" d="M7.72 12.53a.75.75 0 010-1.06l7.5-7.5a.75.75 0 111.06 1.06L9.31 12l6.97 6.97a.75.75 0 11-1.06 1.06l-7.5-7.5z" clip-rule="evenodd" />
</svg>

<svg xmlns="http://www.w3.org/2000/svg" viewBox="0 0 24 24" fill="currentColor" class="chevron-arrow-right w-6 h-6">
  <path fill-rule="evenodd" d="M16.28 11.47a.75.75 0 010 1.06l-7.5 7.5a.75.75 0 01-1.06-1.06L14.69 12 7.72 5.03a.75.75 0 011.06-1.06l7.5 7.5z" clip-rule="evenodd" />
</svg>

<svg xmlns="http://www.w3.org/2000/svg" fill="none" viewBox="0 0 24 24" stroke-width="1.5" stroke="currentColor" class="cross-icon">
  <path stroke-linecap="round" stroke-linejoin="round" d="M6 18L18 6M6 6l12 12" />
</svg>
